# xmcd CD database file
#
# Track frame offsets:
#	150
#	13905
#	25922
#	39439
#	54347
#	66440
#	78746
#	90954
#	103358
#	117426
#	131121
#	146273
#	159214
#	179604
#	191699
#	204024
#	216526
#	228658
#	243581
#	255123
#
# Disc length: 3573 seconds
#
# Revision: 0
# Processed by: cddbd v1.5.1PL0 Copyright (c) Steve Scherf et al.
# Submitted via: CDex 1.51
#
DISCID=1b0df314
DTITLE=Louis Jordan - G.I. Jive
DYEAR=1900
DGENRE=Jazz
TTITLE0=G.I. Jive
TTITLE1=Is you is or is you ain't (ma baby)
TTITLE2=Mop Mop
TTITLE3=You can't get that no more
TTITLE4=Caldonia Boogie
TTITLE5=Buzz Me
TTITLE6=Stone Cold Dead in the Market
TTITLE7=Choo Choo Ch' Boogie
TTITLE8=Ain't Nobody Here but us Chickens
TTITLE9=Open the door, Richard
TTITLE10=Run, Joe
TTITLE11=Beans and Cornbread
TTITLE12=Saturday Night Fish Fry (part 1)
TTITLE13=Baby it's Cold Outside
TTITLE14=Don't Burn the Candle at Both Ends
TTITLE15=Barnyard Boogie
TTITLE16=Reet, Petite, and Gone
TTITLE17=Daddy-O
TTITLE18=Pettin' and Pokin'
TTITLE19=You Broke Your Promise
EXTD=
EXTT0=
EXTT1=
EXTT2=
EXTT3=
EXTT4=
EXTT5=
EXTT6=
EXTT7=
EXTT8=
EXTT9=
EXTT10=
EXTT11=
EXTT12=
EXTT13=
EXTT14=
EXTT15=
EXTT16=
EXTT17=
EXTT18=
EXTT19=
PLAYORDER=
